<?xml version="1.0" encoding="utf-8"?>
<svg xmlns="http://www.w3.org/2000/svg" xmlns:xlink="http://www.w3.org/1999/xlink" width="672" height="480" viewBox="0 0 2688 1920">
<defs>
  <clipPath id="clip500">
    <rect x="0" y="0" width="2688" height="1920"/>
  </clipPath>
</defs>
<path clip-path="url(#clip500)" d="M0 1920 L2688 1920 L2688 0 L0 0  Z" fill="#ffffff" fill-rule="evenodd" fill-opacity="1"/>
<defs>
  <clipPath id="clip501">
    <rect x="537" y="0" width="1883" height="1883"/>
  </clipPath>
</defs>
<path clip-path="url(#clip500)" d="M189.154 1734.12 L2640.76 1734.12 L2640.76 47.2441 L189.154 47.2441  Z" fill="#ffffff" fill-rule="evenodd" fill-opacity="1"/>
<defs>
  <clipPath id="clip502">
    <rect x="189" y="47" width="2453" height="1688"/>
  </clipPath>
</defs>
<polyline clip-path="url(#clip502)" style="stroke:#000000; stroke-linecap:round; stroke-linejoin:round; stroke-width:2; stroke-opacity:0.1; fill:none" points="258.539,1734.12 258.539,47.2441 "/>
<polyline clip-path="url(#clip502)" style="stroke:#000000; stroke-linecap:round; stroke-linejoin:round; stroke-width:2; stroke-opacity:0.1; fill:none" points="626.638,1734.12 626.638,47.2441 "/>
<polyline clip-path="url(#clip502)" style="stroke:#000000; stroke-linecap:round; stroke-linejoin:round; stroke-width:2; stroke-opacity:0.1; fill:none" points="994.736,1734.12 994.736,47.2441 "/>
<polyline clip-path="url(#clip502)" style="stroke:#000000; stroke-linecap:round; stroke-linejoin:round; stroke-width:2; stroke-opacity:0.1; fill:none" points="1362.83,1734.12 1362.83,47.2441 "/>
<polyline clip-path="url(#clip502)" style="stroke:#000000; stroke-linecap:round; stroke-linejoin:round; stroke-width:2; stroke-opacity:0.1; fill:none" points="1730.93,1734.12 1730.93,47.2441 "/>
<polyline clip-path="url(#clip502)" style="stroke:#000000; stroke-linecap:round; stroke-linejoin:round; stroke-width:2; stroke-opacity:0.1; fill:none" points="2099.03,1734.12 2099.03,47.2441 "/>
<polyline clip-path="url(#clip502)" style="stroke:#000000; stroke-linecap:round; stroke-linejoin:round; stroke-width:2; stroke-opacity:0.1; fill:none" points="2467.13,1734.12 2467.13,47.2441 "/>
<polyline clip-path="url(#clip500)" style="stroke:#000000; stroke-linecap:round; stroke-linejoin:round; stroke-width:4; stroke-opacity:1; fill:none" points="189.154,1734.12 2640.76,1734.12 "/>
<polyline clip-path="url(#clip500)" style="stroke:#000000; stroke-linecap:round; stroke-linejoin:round; stroke-width:4; stroke-opacity:1; fill:none" points="258.539,1734.12 258.539,1715.22 "/>
<polyline clip-path="url(#clip500)" style="stroke:#000000; stroke-linecap:round; stroke-linejoin:round; stroke-width:4; stroke-opacity:1; fill:none" points="626.638,1734.12 626.638,1715.22 "/>
<polyline clip-path="url(#clip500)" style="stroke:#000000; stroke-linecap:round; stroke-linejoin:round; stroke-width:4; stroke-opacity:1; fill:none" points="994.736,1734.12 994.736,1715.22 "/>
<polyline clip-path="url(#clip500)" style="stroke:#000000; stroke-linecap:round; stroke-linejoin:round; stroke-width:4; stroke-opacity:1; fill:none" points="1362.83,1734.12 1362.83,1715.22 "/>
<polyline clip-path="url(#clip500)" style="stroke:#000000; stroke-linecap:round; stroke-linejoin:round; stroke-width:4; stroke-opacity:1; fill:none" points="1730.93,1734.12 1730.93,1715.22 "/>
<polyline clip-path="url(#clip500)" style="stroke:#000000; stroke-linecap:round; stroke-linejoin:round; stroke-width:4; stroke-opacity:1; fill:none" points="2099.03,1734.12 2099.03,1715.22 "/>
<polyline clip-path="url(#clip500)" style="stroke:#000000; stroke-linecap:round; stroke-linejoin:round; stroke-width:4; stroke-opacity:1; fill:none" points="2467.13,1734.12 2467.13,1715.22 "/>
<path clip-path="url(#clip500)" d="M258.539 1767.34 Q254.928 1767.34 253.099 1770.9 Q251.294 1774.45 251.294 1781.58 Q251.294 1788.68 253.099 1792.25 Q254.928 1795.79 258.539 1795.79 Q262.173 1795.79 263.979 1792.25 Q265.807 1788.68 265.807 1781.58 Q265.807 1774.45 263.979 1770.9 Q262.173 1767.34 258.539 1767.34 M258.539 1763.64 Q264.349 1763.64 267.405 1768.24 Q270.483 1772.83 270.483 1781.58 Q270.483 1790.3 267.405 1794.91 Q264.349 1799.49 258.539 1799.49 Q252.729 1799.49 249.65 1794.91 Q246.595 1790.3 246.595 1781.58 Q246.595 1772.83 249.65 1768.24 Q252.729 1763.64 258.539 1763.64 Z" fill="#000000" fill-rule="nonzero" fill-opacity="1" /><path clip-path="url(#clip500)" d="M617.02 1794.89 L624.658 1794.89 L624.658 1768.52 L616.348 1770.19 L616.348 1765.93 L624.612 1764.26 L629.288 1764.26 L629.288 1794.89 L636.927 1794.89 L636.927 1798.82 L617.02 1798.82 L617.02 1794.89 Z" fill="#000000" fill-rule="nonzero" fill-opacity="1" /><path clip-path="url(#clip500)" d="M989.389 1794.89 L1005.71 1794.89 L1005.71 1798.82 L983.764 1798.82 L983.764 1794.89 Q986.426 1792.13 991.009 1787.5 Q995.616 1782.85 996.796 1781.51 Q999.042 1778.98 999.921 1777.25 Q1000.82 1775.49 1000.82 1773.8 Q1000.82 1771.04 998.88 1769.31 Q996.958 1767.57 993.857 1767.57 Q991.658 1767.57 989.204 1768.34 Q986.773 1769.1 983.996 1770.65 L983.996 1765.93 Q986.82 1764.79 989.273 1764.21 Q991.727 1763.64 993.764 1763.64 Q999.134 1763.64 1002.33 1766.32 Q1005.52 1769.01 1005.52 1773.5 Q1005.52 1775.63 1004.71 1777.55 Q1003.93 1779.45 1001.82 1782.04 Q1001.24 1782.71 998.139 1785.93 Q995.037 1789.12 989.389 1794.89 Z" fill="#000000" fill-rule="nonzero" fill-opacity="1" /><path clip-path="url(#clip500)" d="M1367.08 1780.19 Q1370.44 1780.9 1372.31 1783.17 Q1374.21 1785.44 1374.21 1788.77 Q1374.21 1793.89 1370.69 1796.69 Q1367.18 1799.49 1360.69 1799.49 Q1358.52 1799.49 1356.2 1799.05 Q1353.91 1798.64 1351.46 1797.78 L1351.46 1793.27 Q1353.4 1794.4 1355.72 1794.98 Q1358.03 1795.56 1360.55 1795.56 Q1364.95 1795.56 1367.24 1793.82 Q1369.56 1792.08 1369.56 1788.77 Q1369.56 1785.72 1367.41 1784.01 Q1365.28 1782.27 1361.46 1782.27 L1357.43 1782.27 L1357.43 1778.43 L1361.64 1778.43 Q1365.09 1778.43 1366.92 1777.06 Q1368.75 1775.67 1368.75 1773.08 Q1368.75 1770.42 1366.85 1769.01 Q1364.98 1767.57 1361.46 1767.57 Q1359.54 1767.57 1357.34 1767.99 Q1355.14 1768.4 1352.5 1769.28 L1352.5 1765.12 Q1355.16 1764.38 1357.48 1764.01 Q1359.81 1763.64 1361.87 1763.64 Q1367.2 1763.64 1370.3 1766.07 Q1373.4 1768.47 1373.4 1772.59 Q1373.4 1775.46 1371.76 1777.46 Q1370.11 1779.42 1367.08 1780.19 Z" fill="#000000" fill-rule="nonzero" fill-opacity="1" /><path clip-path="url(#clip500)" d="M1733.94 1768.34 L1722.14 1786.78 L1733.94 1786.78 L1733.94 1768.34 M1732.72 1764.26 L1738.6 1764.26 L1738.6 1786.78 L1743.53 1786.78 L1743.53 1790.67 L1738.6 1790.67 L1738.6 1798.82 L1733.94 1798.82 L1733.94 1790.67 L1718.34 1790.67 L1718.34 1786.16 L1732.72 1764.26 Z" fill="#000000" fill-rule="nonzero" fill-opacity="1" /><path clip-path="url(#clip500)" d="M2089.31 1764.26 L2107.67 1764.26 L2107.67 1768.2 L2093.59 1768.2 L2093.59 1776.67 Q2094.61 1776.32 2095.63 1776.16 Q2096.65 1775.97 2097.67 1775.97 Q2103.45 1775.97 2106.83 1779.15 Q2110.21 1782.32 2110.21 1787.73 Q2110.21 1793.31 2106.74 1796.41 Q2103.27 1799.49 2096.95 1799.49 Q2094.77 1799.49 2092.5 1799.12 Q2090.26 1798.75 2087.85 1798.01 L2087.85 1793.31 Q2089.94 1794.45 2092.16 1795 Q2094.38 1795.56 2096.86 1795.56 Q2100.86 1795.56 2103.2 1793.45 Q2105.54 1791.34 2105.54 1787.73 Q2105.54 1784.12 2103.2 1782.02 Q2100.86 1779.91 2096.86 1779.91 Q2094.98 1779.91 2093.11 1780.33 Q2091.25 1780.74 2089.31 1781.62 L2089.31 1764.26 Z" fill="#000000" fill-rule="nonzero" fill-opacity="1" /><path clip-path="url(#clip500)" d="M2467.54 1779.68 Q2464.39 1779.68 2462.54 1781.83 Q2460.71 1783.98 2460.71 1787.73 Q2460.71 1791.46 2462.54 1793.64 Q2464.39 1795.79 2467.54 1795.79 Q2470.68 1795.79 2472.51 1793.64 Q2474.36 1791.46 2474.36 1787.73 Q2474.36 1783.98 2472.51 1781.83 Q2470.68 1779.68 2467.54 1779.68 M2476.82 1765.02 L2476.82 1769.28 Q2475.06 1768.45 2473.25 1768.01 Q2471.47 1767.57 2469.71 1767.57 Q2465.08 1767.57 2462.63 1770.7 Q2460.2 1773.82 2459.85 1780.14 Q2461.22 1778.13 2463.28 1777.06 Q2465.34 1775.97 2467.81 1775.97 Q2473.02 1775.97 2476.03 1779.15 Q2479.06 1782.29 2479.06 1787.73 Q2479.06 1793.06 2475.92 1796.27 Q2472.77 1799.49 2467.54 1799.49 Q2461.54 1799.49 2458.37 1794.91 Q2455.2 1790.3 2455.2 1781.58 Q2455.2 1773.38 2459.09 1768.52 Q2462.98 1763.64 2469.53 1763.64 Q2471.29 1763.64 2473.07 1763.98 Q2474.87 1764.33 2476.82 1765.02 Z" fill="#000000" fill-rule="nonzero" fill-opacity="1" /><path clip-path="url(#clip500)" d="M1354.11 1837.53 L1354.11 1847.65 L1366.18 1847.65 L1366.18 1852.2 L1354.11 1852.2 L1354.11 1871.56 Q1354.11 1875.92 1355.29 1877.16 Q1356.5 1878.4 1360.16 1878.4 L1366.18 1878.4 L1366.18 1883.3 L1360.16 1883.3 Q1353.38 1883.3 1350.8 1880.79 Q1348.23 1878.24 1348.23 1871.56 L1348.23 1852.2 L1343.93 1852.2 L1343.93 1847.65 L1348.23 1847.65 L1348.23 1837.53 L1354.11 1837.53 Z" fill="#000000" fill-rule="nonzero" fill-opacity="1" /><path clip-path="url(#clip500)" d="M1373.88 1847.65 L1379.74 1847.65 L1379.74 1883.3 L1373.88 1883.3 L1373.88 1847.65 M1373.88 1833.78 L1379.74 1833.78 L1379.74 1841.19 L1373.88 1841.19 L1373.88 1833.78 Z" fill="#000000" fill-rule="nonzero" fill-opacity="1" /><path clip-path="url(#clip500)" d="M1419.75 1854.5 Q1421.94 1850.55 1425 1848.67 Q1428.05 1846.79 1432.19 1846.79 Q1437.76 1846.79 1440.78 1850.71 Q1443.81 1854.59 1443.81 1861.78 L1443.81 1883.3 L1437.92 1883.3 L1437.92 1861.98 Q1437.92 1856.85 1436.11 1854.37 Q1434.29 1851.89 1430.57 1851.89 Q1426.02 1851.89 1423.37 1854.91 Q1420.73 1857.93 1420.73 1863.15 L1420.73 1883.3 L1414.84 1883.3 L1414.84 1861.98 Q1414.84 1856.82 1413.03 1854.37 Q1411.22 1851.89 1407.43 1851.89 Q1402.94 1851.89 1400.3 1854.94 Q1397.66 1857.97 1397.66 1863.15 L1397.66 1883.3 L1391.77 1883.3 L1391.77 1847.65 L1397.66 1847.65 L1397.66 1853.19 Q1399.66 1849.91 1402.46 1848.35 Q1405.26 1846.79 1409.11 1846.79 Q1413 1846.79 1415.7 1848.77 Q1418.44 1850.74 1419.75 1854.5 Z" fill="#000000" fill-rule="nonzero" fill-opacity="1" /><path clip-path="url(#clip500)" d="M1485.98 1864.01 L1485.98 1866.88 L1459.05 1866.88 Q1459.44 1872.92 1462.68 1876.11 Q1465.96 1879.26 1471.78 1879.26 Q1475.16 1879.26 1478.31 1878.43 Q1481.49 1877.6 1484.61 1875.95 L1484.61 1881.49 Q1481.46 1882.82 1478.15 1883.52 Q1474.84 1884.22 1471.43 1884.22 Q1462.9 1884.22 1457.91 1879.26 Q1452.94 1874.29 1452.94 1865.83 Q1452.94 1857.07 1457.65 1851.95 Q1462.4 1846.79 1470.42 1846.79 Q1477.61 1846.79 1481.78 1851.44 Q1485.98 1856.06 1485.98 1864.01 M1480.12 1862.29 Q1480.06 1857.49 1477.42 1854.62 Q1474.81 1851.76 1470.48 1851.76 Q1465.58 1851.76 1462.62 1854.53 Q1459.69 1857.3 1459.24 1862.33 L1480.12 1862.29 Z" fill="#000000" fill-rule="nonzero" fill-opacity="1" /><polyline clip-path="url(#clip502)" style="stroke:#000000; stroke-linecap:round; stroke-linejoin:round; stroke-width:2; stroke-opacity:0.1; fill:none" points="189.154,1689.35 2640.76,1689.35 "/>
<polyline clip-path="url(#clip502)" style="stroke:#000000; stroke-linecap:round; stroke-linejoin:round; stroke-width:2; stroke-opacity:0.1; fill:none" points="189.154,1290.76 2640.76,1290.76 "/>
<polyline clip-path="url(#clip502)" style="stroke:#000000; stroke-linecap:round; stroke-linejoin:round; stroke-width:2; stroke-opacity:0.1; fill:none" points="189.154,892.169 2640.76,892.169 "/>
<polyline clip-path="url(#clip502)" style="stroke:#000000; stroke-linecap:round; stroke-linejoin:round; stroke-width:2; stroke-opacity:0.1; fill:none" points="189.154,493.578 2640.76,493.578 "/>
<polyline clip-path="url(#clip502)" style="stroke:#000000; stroke-linecap:round; stroke-linejoin:round; stroke-width:2; stroke-opacity:0.1; fill:none" points="189.154,94.9858 2640.76,94.9858 "/>
<polyline clip-path="url(#clip500)" style="stroke:#000000; stroke-linecap:round; stroke-linejoin:round; stroke-width:4; stroke-opacity:1; fill:none" points="189.154,1734.12 189.154,47.2441 "/>
<polyline clip-path="url(#clip500)" style="stroke:#000000; stroke-linecap:round; stroke-linejoin:round; stroke-width:4; stroke-opacity:1; fill:none" points="189.154,1689.35 208.052,1689.35 "/>
<polyline clip-path="url(#clip500)" style="stroke:#000000; stroke-linecap:round; stroke-linejoin:round; stroke-width:4; stroke-opacity:1; fill:none" points="189.154,1290.76 208.052,1290.76 "/>
<polyline clip-path="url(#clip500)" style="stroke:#000000; stroke-linecap:round; stroke-linejoin:round; stroke-width:4; stroke-opacity:1; fill:none" points="189.154,892.169 208.052,892.169 "/>
<polyline clip-path="url(#clip500)" style="stroke:#000000; stroke-linecap:round; stroke-linejoin:round; stroke-width:4; stroke-opacity:1; fill:none" points="189.154,493.578 208.052,493.578 "/>
<polyline clip-path="url(#clip500)" style="stroke:#000000; stroke-linecap:round; stroke-linejoin:round; stroke-width:4; stroke-opacity:1; fill:none" points="189.154,94.9858 208.052,94.9858 "/>
<path clip-path="url(#clip500)" d="M61.4965 1675.15 Q57.8854 1675.15 56.0567 1678.72 Q54.2512 1682.26 54.2512 1689.39 Q54.2512 1696.49 56.0567 1700.06 Q57.8854 1703.6 61.4965 1703.6 Q65.1307 1703.6 66.9363 1700.06 Q68.765 1696.49 68.765 1689.39 Q68.765 1682.26 66.9363 1678.72 Q65.1307 1675.15 61.4965 1675.15 M61.4965 1671.45 Q67.3067 1671.45 70.3622 1676.05 Q73.4409 1680.64 73.4409 1689.39 Q73.4409 1698.11 70.3622 1702.72 Q67.3067 1707.3 61.4965 1707.3 Q55.6864 1707.3 52.6077 1702.72 Q49.5521 1698.11 49.5521 1689.39 Q49.5521 1680.64 52.6077 1676.05 Q55.6864 1671.45 61.4965 1671.45 Z" fill="#000000" fill-rule="nonzero" fill-opacity="1" /><path clip-path="url(#clip500)" d="M81.6584 1700.75 L86.5427 1700.75 L86.5427 1706.63 L81.6584 1706.63 L81.6584 1700.75 Z" fill="#000000" fill-rule="nonzero" fill-opacity="1" /><path clip-path="url(#clip500)" d="M106.728 1675.15 Q103.117 1675.15 101.288 1678.72 Q99.4824 1682.26 99.4824 1689.39 Q99.4824 1696.49 101.288 1700.06 Q103.117 1703.6 106.728 1703.6 Q110.362 1703.6 112.168 1700.06 Q113.996 1696.49 113.996 1689.39 Q113.996 1682.26 112.168 1678.72 Q110.362 1675.15 106.728 1675.15 M106.728 1671.45 Q112.538 1671.45 115.593 1676.05 Q118.672 1680.64 118.672 1689.39 Q118.672 1698.11 115.593 1702.72 Q112.538 1707.3 106.728 1707.3 Q100.918 1707.3 97.8389 1702.72 Q94.7834 1698.11 94.7834 1689.39 Q94.7834 1680.64 97.8389 1676.05 Q100.918 1671.45 106.728 1671.45 Z" fill="#000000" fill-rule="nonzero" fill-opacity="1" /><path clip-path="url(#clip500)" d="M136.89 1675.15 Q133.279 1675.15 131.45 1678.72 Q129.644 1682.26 129.644 1689.39 Q129.644 1696.49 131.45 1700.06 Q133.279 1703.6 136.89 1703.6 Q140.524 1703.6 142.329 1700.06 Q144.158 1696.49 144.158 1689.39 Q144.158 1682.26 142.329 1678.72 Q140.524 1675.15 136.89 1675.15 M136.89 1671.45 Q142.7 1671.45 145.755 1676.05 Q148.834 1680.64 148.834 1689.39 Q148.834 1698.11 145.755 1702.72 Q142.7 1707.3 136.89 1707.3 Q131.079 1707.3 128.001 1702.72 Q124.945 1698.11 124.945 1689.39 Q124.945 1680.64 128.001 1676.05 Q131.079 1671.45 136.89 1671.45 Z" fill="#000000" fill-rule="nonzero" fill-opacity="1" /><path clip-path="url(#clip500)" d="M62.4919 1276.56 Q58.8808 1276.56 57.0521 1280.12 Q55.2465 1283.67 55.2465 1290.8 Q55.2465 1297.9 57.0521 1301.47 Q58.8808 1305.01 62.4919 1305.01 Q66.1261 1305.01 67.9317 1301.47 Q69.7604 1297.9 69.7604 1290.8 Q69.7604 1283.67 67.9317 1280.12 Q66.1261 1276.56 62.4919 1276.56 M62.4919 1272.86 Q68.302 1272.86 71.3576 1277.46 Q74.4363 1282.05 74.4363 1290.8 Q74.4363 1299.52 71.3576 1304.13 Q68.302 1308.71 62.4919 1308.71 Q56.6817 1308.71 53.603 1304.13 Q50.5475 1299.52 50.5475 1290.8 Q50.5475 1282.05 53.603 1277.46 Q56.6817 1272.86 62.4919 1272.86 Z" fill="#000000" fill-rule="nonzero" fill-opacity="1" /><path clip-path="url(#clip500)" d="M82.6538 1302.16 L87.538 1302.16 L87.538 1308.04 L82.6538 1308.04 L82.6538 1302.16 Z" fill="#000000" fill-rule="nonzero" fill-opacity="1" /><path clip-path="url(#clip500)" d="M101.751 1304.11 L118.07 1304.11 L118.07 1308.04 L96.126 1308.04 L96.126 1304.11 Q98.788 1301.35 103.371 1296.72 Q107.978 1292.07 109.158 1290.73 Q111.404 1288.2 112.283 1286.47 Q113.186 1284.71 113.186 1283.02 Q113.186 1280.26 111.242 1278.53 Q109.32 1276.79 106.218 1276.79 Q104.019 1276.79 101.566 1277.56 Q99.1352 1278.32 96.3574 1279.87 L96.3574 1275.15 Q99.1815 1274.01 101.635 1273.43 Q104.089 1272.86 106.126 1272.86 Q111.496 1272.86 114.691 1275.54 Q117.885 1278.23 117.885 1282.72 Q117.885 1284.85 117.075 1286.77 Q116.288 1288.67 114.181 1291.26 Q113.603 1291.93 110.501 1295.15 Q107.399 1298.34 101.751 1304.11 Z" fill="#000000" fill-rule="nonzero" fill-opacity="1" /><path clip-path="url(#clip500)" d="M127.931 1273.48 L146.288 1273.48 L146.288 1277.42 L132.214 1277.42 L132.214 1285.89 Q133.232 1285.54 134.251 1285.38 Q135.269 1285.19 136.288 1285.19 Q142.075 1285.19 145.454 1288.37 Q148.834 1291.54 148.834 1296.95 Q148.834 1302.53 145.362 1305.63 Q141.89 1308.71 135.57 1308.71 Q133.394 1308.71 131.126 1308.34 Q128.88 1307.97 126.473 1307.23 L126.473 1302.53 Q128.556 1303.67 130.779 1304.22 Q133.001 1304.78 135.478 1304.78 Q139.482 1304.78 141.82 1302.67 Q144.158 1300.56 144.158 1296.95 Q144.158 1293.34 141.82 1291.24 Q139.482 1289.13 135.478 1289.13 Q133.603 1289.13 131.728 1289.55 Q129.876 1289.96 127.931 1290.84 L127.931 1273.48 Z" fill="#000000" fill-rule="nonzero" fill-opacity="1" /><path clip-path="url(#clip500)" d="M61.4965 877.968 Q57.8854 877.968 56.0567 881.533 Q54.2512 885.074 54.2512 892.204 Q54.2512 899.31 56.0567 902.875 Q57.8854 906.417 61.4965 906.417 Q65.1307 906.417 66.9363 902.875 Q68.765 899.31 68.765 892.204 Q68.765 885.074 66.9363 881.533 Q65.1307 877.968 61.4965 877.968 M61.4965 874.264 Q67.3067 874.264 70.3622 878.871 Q73.4409 883.454 73.4409 892.204 Q73.4409 900.931 70.3622 905.537 Q67.3067 910.121 61.4965 910.121 Q55.6864 910.121 52.6077 905.537 Q49.5521 900.931 49.5521 892.204 Q49.5521 883.454 52.6077 878.871 Q55.6864 874.264 61.4965 874.264 Z" fill="#000000" fill-rule="nonzero" fill-opacity="1" /><path clip-path="url(#clip500)" d="M81.6584 903.57 L86.5427 903.57 L86.5427 909.449 L81.6584 909.449 L81.6584 903.57 Z" fill="#000000" fill-rule="nonzero" fill-opacity="1" /><path clip-path="url(#clip500)" d="M96.7741 874.889 L115.13 874.889 L115.13 878.824 L101.056 878.824 L101.056 887.297 Q102.075 886.949 103.094 886.787 Q104.112 886.602 105.131 886.602 Q110.918 886.602 114.297 889.773 Q117.677 892.945 117.677 898.361 Q117.677 903.94 114.205 907.042 Q110.732 910.121 104.413 910.121 Q102.237 910.121 99.9685 909.75 Q97.7232 909.38 95.3158 908.639 L95.3158 903.94 Q97.3991 905.074 99.6213 905.63 Q101.844 906.185 104.32 906.185 Q108.325 906.185 110.663 904.079 Q113.001 901.972 113.001 898.361 Q113.001 894.75 110.663 892.644 Q108.325 890.537 104.32 890.537 Q102.445 890.537 100.57 890.954 Q98.7185 891.371 96.7741 892.25 L96.7741 874.889 Z" fill="#000000" fill-rule="nonzero" fill-opacity="1" /><path clip-path="url(#clip500)" d="M136.89 877.968 Q133.279 877.968 131.45 881.533 Q129.644 885.074 129.644 892.204 Q129.644 899.31 131.45 902.875 Q133.279 906.417 136.89 906.417 Q140.524 906.417 142.329 902.875 Q144.158 899.31 144.158 892.204 Q144.158 885.074 142.329 881.533 Q140.524 877.968 136.89 877.968 M136.89 874.264 Q142.7 874.264 145.755 878.871 Q148.834 883.454 148.834 892.204 Q148.834 900.931 145.755 905.537 Q142.7 910.121 136.89 910.121 Q131.079 910.121 128.001 905.537 Q124.945 900.931 124.945 892.204 Q124.945 883.454 128.001 878.871 Q131.079 874.264 136.89 874.264 Z" fill="#000000" fill-rule="nonzero" fill-opacity="1" /><path clip-path="url(#clip500)" d="M62.4919 479.376 Q58.8808 479.376 57.0521 482.941 Q55.2465 486.483 55.2465 493.612 Q55.2465 500.719 57.0521 504.283 Q58.8808 507.825 62.4919 507.825 Q66.1261 507.825 67.9317 504.283 Q69.7604 500.719 69.7604 493.612 Q69.7604 486.483 67.9317 482.941 Q66.1261 479.376 62.4919 479.376 M62.4919 475.673 Q68.302 475.673 71.3576 480.279 Q74.4363 484.862 74.4363 493.612 Q74.4363 502.339 71.3576 506.945 Q68.302 511.529 62.4919 511.529 Q56.6817 511.529 53.603 506.945 Q50.5475 502.339 50.5475 493.612 Q50.5475 484.862 53.603 480.279 Q56.6817 475.673 62.4919 475.673 Z" fill="#000000" fill-rule="nonzero" fill-opacity="1" /><path clip-path="url(#clip500)" d="M82.6538 504.978 L87.538 504.978 L87.538 510.858 L82.6538 510.858 L82.6538 504.978 Z" fill="#000000" fill-rule="nonzero" fill-opacity="1" /><path clip-path="url(#clip500)" d="M96.5426 476.298 L118.765 476.298 L118.765 478.288 L106.218 510.858 L101.334 510.858 L113.14 480.233 L96.5426 480.233 L96.5426 476.298 Z" fill="#000000" fill-rule="nonzero" fill-opacity="1" /><path clip-path="url(#clip500)" d="M127.931 476.298 L146.288 476.298 L146.288 480.233 L132.214 480.233 L132.214 488.705 Q133.232 488.358 134.251 488.196 Q135.269 488.01 136.288 488.01 Q142.075 488.01 145.454 491.182 Q148.834 494.353 148.834 499.77 Q148.834 505.348 145.362 508.45 Q141.89 511.529 135.57 511.529 Q133.394 511.529 131.126 511.158 Q128.88 510.788 126.473 510.047 L126.473 505.348 Q128.556 506.483 130.779 507.038 Q133.001 507.594 135.478 507.594 Q139.482 507.594 141.82 505.487 Q144.158 503.381 144.158 499.77 Q144.158 496.159 141.82 494.052 Q139.482 491.946 135.478 491.946 Q133.603 491.946 131.728 492.362 Q129.876 492.779 127.931 493.659 L127.931 476.298 Z" fill="#000000" fill-rule="nonzero" fill-opacity="1" /><path clip-path="url(#clip500)" d="M52.3067 108.331 L59.9456 108.331 L59.9456 81.965 L51.6354 83.6317 L51.6354 79.3724 L59.8993 77.7058 L64.5752 77.7058 L64.5752 108.331 L72.214 108.331 L72.214 112.266 L52.3067 112.266 L52.3067 108.331 Z" fill="#000000" fill-rule="nonzero" fill-opacity="1" /><path clip-path="url(#clip500)" d="M81.6584 106.386 L86.5427 106.386 L86.5427 112.266 L81.6584 112.266 L81.6584 106.386 Z" fill="#000000" fill-rule="nonzero" fill-opacity="1" /><path clip-path="url(#clip500)" d="M106.728 80.7845 Q103.117 80.7845 101.288 84.3493 Q99.4824 87.8909 99.4824 95.0205 Q99.4824 102.127 101.288 105.692 Q103.117 109.233 106.728 109.233 Q110.362 109.233 112.168 105.692 Q113.996 102.127 113.996 95.0205 Q113.996 87.8909 112.168 84.3493 Q110.362 80.7845 106.728 80.7845 M106.728 77.0808 Q112.538 77.0808 115.593 81.6872 Q118.672 86.2705 118.672 95.0205 Q118.672 103.747 115.593 108.354 Q112.538 112.937 106.728 112.937 Q100.918 112.937 97.8389 108.354 Q94.7834 103.747 94.7834 95.0205 Q94.7834 86.2705 97.8389 81.6872 Q100.918 77.0808 106.728 77.0808 Z" fill="#000000" fill-rule="nonzero" fill-opacity="1" /><path clip-path="url(#clip500)" d="M136.89 80.7845 Q133.279 80.7845 131.45 84.3493 Q129.644 87.8909 129.644 95.0205 Q129.644 102.127 131.45 105.692 Q133.279 109.233 136.89 109.233 Q140.524 109.233 142.329 105.692 Q144.158 102.127 144.158 95.0205 Q144.158 87.8909 142.329 84.3493 Q140.524 80.7845 136.89 80.7845 M136.89 77.0808 Q142.7 77.0808 145.755 81.6872 Q148.834 86.2705 148.834 95.0205 Q148.834 103.747 145.755 108.354 Q142.7 112.937 136.89 112.937 Q131.079 112.937 128.001 108.354 Q124.945 103.747 124.945 95.0205 Q124.945 86.2705 128.001 81.6872 Q131.079 77.0808 136.89 77.0808 Z" fill="#000000" fill-rule="nonzero" fill-opacity="1" /><polyline clip-path="url(#clip502)" style="stroke:#009af9; stroke-linecap:round; stroke-linejoin:round; stroke-width:4; stroke-opacity:1; fill:none" points="258.539,94.9858 262.303,111.208 266.068,127.265 269.832,143.159 273.597,158.891 291.001,229.568 308.405,296.981 325.808,361.281 343.212,422.611 360.616,481.11 378.02,536.907 395.424,590.127 412.828,640.889 433.746,698.809 454.664,753.529 475.582,805.227 496.5,854.068 514.186,893.252 531.872,930.598 549.558,966.192 567.244,1000.12 586.455,1035.17 605.667,1068.43 624.879,1100.01 644.091,1129.98 661.803,1156.26 679.514,1181.3 697.226,1205.17 714.938,1227.91 733.926,1251.11 752.915,1273.15 771.904,1294.07 790.893,1313.95 812.893,1335.73 834.893,1356.24 856.894,1375.57 878.894,1393.77 917.997,1423.56 957.099,1450.35 991.389,1471.61 1025.68,1490.97 1063.06,1510.13 1100.45,1527.44 1138.05,1543.17 1175.66,1557.36 1217.24,1571.46 1258.82,1584.05 1298.38,1594.78 1337.94,1604.42 1420.21,1621.43 1489.47,1633.08 1574.02,1644.63 1651.47,1653.11 1723.01,1659.52 1795.47,1664.85 1876.68,1669.7 1950.27,1673.26 2034.52,1676.55 2112.53,1679 2189.45,1680.95 2264.12,1682.49 2340.67,1683.78 2424.54,1684.92 2546.38,1686.17 2571.37,1686.38 "/>
<path clip-path="url(#clip500)" d="M2019.69 207.153 L2559.04 207.153 L2559.04 103.473 L2019.69 103.473  Z" fill="#ffffff" fill-rule="evenodd" fill-opacity="1"/>
<polyline clip-path="url(#clip500)" style="stroke:#000000; stroke-linecap:round; stroke-linejoin:round; stroke-width:4; stroke-opacity:1; fill:none" points="2019.69,207.153 2559.04,207.153 2559.04,103.473 2019.69,103.473 2019.69,207.153 "/>
<polyline clip-path="url(#clip500)" style="stroke:#009af9; stroke-linecap:round; stroke-linejoin:round; stroke-width:4; stroke-opacity:1; fill:none" points="2046.93,155.313 2210.37,155.313 "/>
<path clip-path="url(#clip500)" d="M2245.01 139.306 L2245.01 146.667 L2253.79 146.667 L2253.79 149.978 L2245.01 149.978 L2245.01 164.052 Q2245.01 167.223 2245.87 168.126 Q2246.75 169.028 2249.41 169.028 L2253.79 169.028 L2253.79 172.593 L2249.41 172.593 Q2244.48 172.593 2242.61 170.764 Q2240.73 168.913 2240.73 164.052 L2240.73 149.978 L2237.61 149.978 L2237.61 146.667 L2240.73 146.667 L2240.73 139.306 L2245.01 139.306 Z" fill="#000000" fill-rule="nonzero" fill-opacity="1" /><path clip-path="url(#clip500)" d="M2281.57 158.565 L2281.57 160.649 L2261.98 160.649 Q2262.26 165.047 2264.62 167.362 Q2267.01 169.653 2271.24 169.653 Q2273.7 169.653 2275.99 169.052 Q2278.3 168.45 2280.57 167.246 L2280.57 171.274 Q2278.28 172.246 2275.87 172.755 Q2273.46 173.264 2270.99 173.264 Q2264.78 173.264 2261.15 169.653 Q2257.54 166.042 2257.54 159.885 Q2257.54 153.519 2260.96 149.792 Q2264.41 146.042 2270.25 146.042 Q2275.48 146.042 2278.51 149.422 Q2281.57 152.778 2281.57 158.565 M2277.31 157.315 Q2277.26 153.82 2275.34 151.737 Q2273.44 149.653 2270.29 149.653 Q2266.73 149.653 2264.58 151.667 Q2262.45 153.681 2262.12 157.339 L2277.31 157.315 Z" fill="#000000" fill-rule="nonzero" fill-opacity="1" /><path clip-path="url(#clip500)" d="M2308.74 151.644 Q2310.34 148.774 2312.56 147.408 Q2314.78 146.042 2317.79 146.042 Q2321.84 146.042 2324.04 148.89 Q2326.24 151.714 2326.24 156.945 L2326.24 172.593 L2321.96 172.593 L2321.96 157.084 Q2321.96 153.357 2320.64 151.552 Q2319.32 149.746 2316.61 149.746 Q2313.3 149.746 2311.38 151.945 Q2309.46 154.144 2309.46 157.94 L2309.46 172.593 L2305.18 172.593 L2305.18 157.084 Q2305.18 153.334 2303.86 151.552 Q2302.54 149.746 2299.78 149.746 Q2296.52 149.746 2294.6 151.968 Q2292.68 154.167 2292.68 157.94 L2292.68 172.593 L2288.39 172.593 L2288.39 146.667 L2292.68 146.667 L2292.68 150.695 Q2294.14 148.311 2296.17 147.177 Q2298.21 146.042 2301.01 146.042 Q2303.83 146.042 2305.8 147.478 Q2307.79 148.913 2308.74 151.644 Z" fill="#000000" fill-rule="nonzero" fill-opacity="1" /><path clip-path="url(#clip500)" d="M2338.86 168.704 L2338.86 182.454 L2334.57 182.454 L2334.57 146.667 L2338.86 146.667 L2338.86 150.603 Q2340.2 148.288 2342.24 147.177 Q2344.3 146.042 2347.14 146.042 Q2351.87 146.042 2354.81 149.792 Q2357.77 153.542 2357.77 159.653 Q2357.77 165.765 2354.81 169.515 Q2351.87 173.264 2347.14 173.264 Q2344.3 173.264 2342.24 172.153 Q2340.2 171.019 2338.86 168.704 M2353.35 159.653 Q2353.35 154.954 2351.4 152.292 Q2349.48 149.607 2346.1 149.607 Q2342.72 149.607 2340.78 152.292 Q2338.86 154.954 2338.86 159.653 Q2338.86 164.352 2340.78 167.038 Q2342.72 169.7 2346.1 169.7 Q2349.48 169.7 2351.4 167.038 Q2353.35 164.352 2353.35 159.653 Z" fill="#000000" fill-rule="nonzero" fill-opacity="1" /><path clip-path="url(#clip500)" d="M2387 158.565 L2387 160.649 L2367.42 160.649 Q2367.7 165.047 2370.06 167.362 Q2372.44 169.653 2376.68 169.653 Q2379.13 169.653 2381.43 169.052 Q2383.74 168.45 2386.01 167.246 L2386.01 171.274 Q2383.72 172.246 2381.31 172.755 Q2378.9 173.264 2376.43 173.264 Q2370.22 173.264 2366.59 169.653 Q2362.98 166.042 2362.98 159.885 Q2362.98 153.519 2366.4 149.792 Q2369.85 146.042 2375.69 146.042 Q2380.92 146.042 2383.95 149.422 Q2387 152.778 2387 158.565 M2382.75 157.315 Q2382.7 153.82 2380.78 151.737 Q2378.88 149.653 2375.73 149.653 Q2372.17 149.653 2370.01 151.667 Q2367.88 153.681 2367.56 157.339 L2382.75 157.315 Z" fill="#000000" fill-rule="nonzero" fill-opacity="1" /><path clip-path="url(#clip500)" d="M2409.02 150.649 Q2408.3 150.232 2407.44 150.047 Q2406.61 149.839 2405.59 149.839 Q2401.98 149.839 2400.04 152.2 Q2398.12 154.538 2398.12 158.936 L2398.12 172.593 L2393.83 172.593 L2393.83 146.667 L2398.12 146.667 L2398.12 150.695 Q2399.46 148.334 2401.61 147.2 Q2403.76 146.042 2406.84 146.042 Q2407.28 146.042 2407.82 146.112 Q2408.35 146.158 2409 146.274 L2409.02 150.649 Z" fill="#000000" fill-rule="nonzero" fill-opacity="1" /><path clip-path="url(#clip500)" d="M2425.27 159.561 Q2420.11 159.561 2418.12 160.741 Q2416.13 161.922 2416.13 164.769 Q2416.13 167.038 2417.61 168.38 Q2419.11 169.7 2421.68 169.7 Q2425.22 169.7 2427.35 167.2 Q2429.5 164.677 2429.5 160.51 L2429.5 159.561 L2425.27 159.561 M2433.76 157.802 L2433.76 172.593 L2429.5 172.593 L2429.5 168.658 Q2428.05 171.019 2425.87 172.153 Q2423.69 173.264 2420.55 173.264 Q2416.56 173.264 2414.2 171.042 Q2411.87 168.797 2411.87 165.047 Q2411.87 160.672 2414.78 158.45 Q2417.72 156.228 2423.53 156.228 L2429.5 156.228 L2429.5 155.811 Q2429.5 152.871 2427.56 151.274 Q2425.64 149.653 2422.14 149.653 Q2419.92 149.653 2417.81 150.186 Q2415.71 150.718 2413.76 151.783 L2413.76 147.848 Q2416.1 146.945 2418.3 146.505 Q2420.5 146.042 2422.58 146.042 Q2428.21 146.042 2430.99 148.959 Q2433.76 151.876 2433.76 157.802 Z" fill="#000000" fill-rule="nonzero" fill-opacity="1" /><path clip-path="url(#clip500)" d="M2446.75 139.306 L2446.75 146.667 L2455.52 146.667 L2455.52 149.978 L2446.75 149.978 L2446.75 164.052 Q2446.75 167.223 2447.61 168.126 Q2448.49 169.028 2451.15 169.028 L2455.52 169.028 L2455.52 172.593 L2451.15 172.593 Q2446.22 172.593 2444.34 170.764 Q2442.47 168.913 2442.47 164.052 L2442.47 149.978 L2439.34 149.978 L2439.34 146.667 L2442.47 146.667 L2442.47 139.306 L2446.75 139.306 Z" fill="#000000" fill-rule="nonzero" fill-opacity="1" /><path clip-path="url(#clip500)" d="M2460.69 162.362 L2460.69 146.667 L2464.94 146.667 L2464.94 162.2 Q2464.94 165.88 2466.38 167.732 Q2467.81 169.561 2470.69 169.561 Q2474.13 169.561 2476.12 167.362 Q2478.14 165.163 2478.14 161.366 L2478.14 146.667 L2482.4 146.667 L2482.4 172.593 L2478.14 172.593 L2478.14 168.612 Q2476.59 170.973 2474.53 172.13 Q2472.49 173.264 2469.78 173.264 Q2465.31 173.264 2463 170.487 Q2460.69 167.709 2460.69 162.362 M2471.4 146.042 L2471.4 146.042 Z" fill="#000000" fill-rule="nonzero" fill-opacity="1" /><path clip-path="url(#clip500)" d="M2506.19 150.649 Q2505.48 150.232 2504.62 150.047 Q2503.79 149.839 2502.77 149.839 Q2499.16 149.839 2497.21 152.2 Q2495.29 154.538 2495.29 158.936 L2495.29 172.593 L2491.01 172.593 L2491.01 146.667 L2495.29 146.667 L2495.29 150.695 Q2496.63 148.334 2498.79 147.2 Q2500.94 146.042 2504.02 146.042 Q2504.46 146.042 2504.99 146.112 Q2505.52 146.158 2506.17 146.274 L2506.19 150.649 Z" fill="#000000" fill-rule="nonzero" fill-opacity="1" /><path clip-path="url(#clip500)" d="M2531.8 158.565 L2531.8 160.649 L2512.21 160.649 Q2512.49 165.047 2514.85 167.362 Q2517.24 169.653 2521.47 169.653 Q2523.93 169.653 2526.22 169.052 Q2528.53 168.45 2530.8 167.246 L2530.8 171.274 Q2528.51 172.246 2526.1 172.755 Q2523.69 173.264 2521.22 173.264 Q2515.01 173.264 2511.38 169.653 Q2507.77 166.042 2507.77 159.885 Q2507.77 153.519 2511.19 149.792 Q2514.64 146.042 2520.48 146.042 Q2525.71 146.042 2528.74 149.422 Q2531.8 152.778 2531.8 158.565 M2527.54 157.315 Q2527.49 153.82 2525.57 151.737 Q2523.67 149.653 2520.52 149.653 Q2516.96 149.653 2514.81 151.667 Q2512.68 153.681 2512.35 157.339 L2527.54 157.315 Z" fill="#000000" fill-rule="nonzero" fill-opacity="1" /></svg>
